<svg xmlns="http://www.w3.org/2000/svg" width="164" height="168" viewBox="0 0 164 168" fill="none">
<g clip-path="url(#clip0_528_1083)">
<path d="M160.199 63.0295L68.9523 31.9042C67.0338 31.2498 64.948 32.2745 64.2936 34.193L20.3812 162.926C19.7268 164.844 20.7515 166.93 22.67 167.584L113.916 198.71C115.835 199.364 117.921 198.339 118.575 196.421L162.488 67.6882C163.142 65.7697 162.117 63.684 160.199 63.0295Z" fill="#4e8947ff"/>
<path d="M159.726 56.6382L72.982 14.5642C71.1582 13.6795 68.9626 14.4409 68.0779 16.2647L8.71887 138.645C7.83424 140.469 8.59561 142.664 10.4194 143.549L97.1632 185.623C98.987 186.508 101.183 185.746 102.067 183.922L161.426 61.5423C162.311 59.7185 161.55 57.5229 159.726 56.6382Z" fill="#a1d9a5ff"/>
<path d="M145.338 63.736L75.9963 30.1028C75.2621 29.7467 74.3783 30.0532 74.0222 30.7873L73.3729 32.1261C73.0168 32.8602 73.3233 33.744 74.0574 34.1001L143.399 67.7334C144.133 68.0895 145.017 67.783 145.373 67.0489L146.022 65.7101C146.378 64.9759 146.072 64.0921 145.338 63.736Z" fill="#7fc07bcf"/>
<path d="M140.793 73.1057L71.4514 39.4724C70.7172 39.1163 69.8334 39.4228 69.4773 40.1569L68.828 41.4957C68.4719 42.2299 68.7783 43.1137 69.5125 43.4698L138.854 77.103C139.588 77.4591 140.472 77.1526 140.828 76.4185L141.477 75.0797C141.833 74.3456 141.527 73.4618 140.793 73.1057Z" fill="#7fc07bcf"/>
<path d="M136.25 82.4733L66.9084 48.8401C66.1742 48.484 65.2904 48.7905 64.9343 49.5246L64.285 50.8634C63.9289 51.5975 64.2354 52.4813 64.9695 52.8374L134.311 86.4707C135.045 86.8268 135.929 86.5203 136.285 85.7862L136.934 84.4474C137.29 83.7132 136.984 82.8294 136.25 82.4733Z" fill="#7fc07bcf"/>
<path d="M131.706 91.8413L62.3644 58.208C61.6303 57.8519 60.7465 58.1584 60.3904 58.8925L59.741 60.2313C59.3849 60.9655 59.6914 61.8493 60.4256 62.2054L129.767 95.8386C130.501 96.1947 131.385 95.8882 131.741 95.1541L132.39 93.8153C132.747 93.0812 132.44 92.1974 131.706 91.8413Z" fill="#7fc07bcf"/>
<path d="M102.655 89.3212L57.5689 67.4529C56.9743 67.1645 56.2584 67.4127 55.9699 68.0074L55.0756 69.8513C54.7871 70.446 55.0354 71.1618 55.63 71.4503L100.716 93.3186C101.31 93.607 102.026 93.3588 102.315 92.7641L103.209 90.9202C103.498 90.3255 103.249 89.6097 102.655 89.3212Z" fill="#7fc07bcf"/>
</g>
<defs>
<clipPath id="clip0_528_1083">
<rect width="124.083" height="174.072" fill="white" transform="translate(75.9668) rotate(25.8752)"/>
</clipPath>
</defs>
</svg>