<svg xmlns="http://www.w3.org/2000/svg" width="28" height="28" viewBox="0 0 28 28" fill="none">
<path d="M14.0003 0.666504C6.64033 0.666504 0.666992 6.63984 0.666992 13.9998C0.666992 21.3598 6.64033 27.3332 14.0003 27.3332C21.3603 27.3332 27.3337 21.3598 27.3337 13.9998C27.3337 6.63984 21.3603 0.666504 14.0003 0.666504ZM14.0003 5.99984C16.5737 5.99984 18.667 8.09317 18.667 10.6665C18.667 13.2398 16.5737 15.3332 14.0003 15.3332C11.427 15.3332 9.33366 13.2398 9.33366 10.6665C9.33366 8.09317 11.427 5.99984 14.0003 5.99984ZM14.0003 24.6665C11.2937 24.6665 8.09366 23.5732 5.81366 20.8265C8.06699 19.0665 10.907 17.9998 14.0003 17.9998C17.0937 17.9998 19.9337 19.0665 22.187 20.8265C19.907 23.5732 16.707 24.6665 14.0003 24.6665Z" fill="#D1D6DB"/>
</svg>