<svg xmlns="http://www.w3.org/2000/svg" width="179" height="150" viewBox="0 0 179 150" fill="none">
<g clip-path="url(#clip0_529_1458)">
<path d="M65.3985 82.4767C65.3985 82.4767 63.4845 86.3022 63.4845 88.455L35.9829 87.7774C34.9213 87.7503 33.9527 87.185 33.4064 86.2751C30.7988 81.9075 26.8041 78.5157 22.0307 76.7462C18.8574 75.5691 15.6067 74.7831 14.1731 75.7588C10.9534 77.9543 14.9054 80.5872 14.9054 80.5872C14.9054 80.5872 11.6857 79.7083 9.05097 80.5872C6.41628 81.4661 6.26904 82.9259 6.56351 83.9519C6.85797 84.978 9.93049 94.1894 13.1502 96.6752C16.37 99.161 68.9127 105.891 73.7443 104.574C78.5758 103.258 83.2563 90.9718 83.2563 90.9718L65.3946 82.4728L65.3985 82.4767Z" fill="#b6e7c1ff"/>
<path d="M105.26 55.6674C105.26 55.6674 112.78 54.3548 122.908 57.3439C122.908 57.3439 137.345 60.2634 146.45 64.9911C155.555 69.7187 155.974 72.0303 155.148 76.7154C154.323 81.4005 134.299 111.493 134.299 111.493L134.687 117.243C134.687 117.243 132.939 126.602 129.22 129.293C125.5 131.984 115.209 127.601 115.089 123.648C114.973 119.694 118.15 112.55 118.15 112.55C118.15 112.55 122.25 110.82 125.985 107.9C129.724 104.981 131.777 86.8328 137.151 78.4888L104.531 71.9219L105.252 55.6712L105.26 55.6674Z" fill="#669a5cab"/>
<path d="M80.0715 57.0225C80.0715 57.0225 70.4781 64.4799 62.5547 80.0839L81.3307 95.7615L101.556 80.4827L80.0715 57.0225Z" fill="#19461dff"/>
<path d="M93.1172 143.495C93.1172 143.495 99.6613 159.246 107.434 169.519C115.206 179.795 116.713 181.797 119.972 184.054C123.23 186.308 126.992 184.554 129.251 182.3C131.51 180.047 167.117 150.476 173.134 145.714L166.613 135.689C166.613 135.689 135.768 140.951 125.237 157.74C125.237 157.74 123.734 142.454 120.224 133.935C116.713 125.417 93.1172 143.495 93.1172 143.495Z" fill="#669a5cab"/>
<path d="M109.146 106.382C109.146 106.382 122.184 128.836 124.133 146.14L94.0472 158.685L79.7617 112.612L109.146 106.382Z" fill="#305533ff"/>
<path d="M69.4785 21.0326C65.1196 21.0791 62.1905 21.0636 62.1905 21.0674C62.1905 21.0674 61.7139 42.7892 81.261 46.7967L82.2258 55.4389L105.132 53.0383L101.769 42.7892V42.2045C107.387 38.228 111.083 31.425 111.083 23.7081C111.083 11.434 101.738 1.49463 90.2035 1.49463C79.5291 1.49463 70.7145 10.0207 69.4746 21.0326H69.4785Z" fill="#b6e7c1ff"/>
<path d="M111.118 23.793C111.118 29.7326 108.925 35.134 105.345 39.1183L97.1895 27.9399L99.9985 16.1343L110.685 19.2744C110.971 20.7342 111.122 22.2481 111.122 23.7969L111.118 23.793Z" fill="#231815"/>
<path d="M75.5455 19.6479C75.9377 18.2764 75.6719 16.9979 74.9518 16.7923C74.2316 16.5866 73.3299 17.5316 72.9377 18.9031C72.5455 20.2745 72.8113 21.553 73.5314 21.7586C74.2515 21.9643 75.1533 21.0193 75.5455 19.6479Z" fill="#231815"/>
<path d="M112.656 23.4177C112.656 23.9752 112.125 24.3779 111.59 24.2231L69.908 12.0844L58.9779 8.91328C58.5866 8.80099 58.3619 8.39056 58.4742 7.99562L58.5866 7.60455C58.7028 7.20574 59.1174 6.98116 59.5165 7.09732L70.9038 10.4698C75.158 4.13139 82.1284 0 90.0053 0C102.547 0 112.648 10.1213 112.66 23.4177H112.656Z" fill="#305533ff"/>
<path d="M98.0335 30.6699C100.845 30.6699 103.125 27.9777 103.125 24.6567C103.125 21.3357 100.845 18.6436 98.0335 18.6436C95.2218 18.6436 92.9424 21.3357 92.9424 24.6567C92.9424 27.9777 95.2218 30.6699 98.0335 30.6699Z" fill="#b6e7c1ff"/>
<path d="M75.8289 112.33L77.5027 117.766L61.6055 135.952L83.7756 159.571C83.7756 159.571 110.549 144.521 113.687 132.816C116.825 121.111 108.875 106.479 108.875 106.479L76.5225 111.706L75.8289 112.33Z" fill="#3c683fff"/>
<path d="M62.6399 137.153C62.6399 137.153 43.5539 158.135 41.6437 167.989C39.7336 177.843 23.5225 235.78 23.5225 235.78L35.5491 235.958C35.5491 235.958 38.2419 228.98 45.7585 215.355C52.0391 203.971 55.5843 198.601 57.6146 189.506C60.0401 178.641 61.2799 173.782 61.2799 173.782L82.7604 158.724L62.636 137.149L62.6399 137.153Z" fill="#b6e7c1ff"/>
<path d="M168.892 149.772L164.49 136.181C164.49 136.181 171.619 129.68 177.106 130.063L190 164.961L187.056 165.983C187.056 165.983 185.432 166.483 182.503 164.373C179.574 162.262 171.275 149.694 171.275 149.694L168.892 149.775V149.772Z" fill="#040000"/>
<path d="M84.1709 53.7703C84.1709 53.7703 60.3037 66.2922 76.414 111.912L108.759 106.367C108.759 106.367 113.648 81.5323 113.904 76.1658L122.091 77.6991L129.511 57.5029C129.511 57.5029 109.301 47.7881 103.675 47.7881C98.0495 47.7881 84.1748 53.7703 84.1748 53.7703H84.1709Z" fill="#305533ff"/>
</g>
<defs>
<clipPath id="clip0_529_1458">
<rect width="190" height="244" fill="white"/>
</clipPath>
</defs>
</svg>