<svg xmlns="http://www.w3.org/2000/svg" width="80" height="80" viewBox="0 0 80 80" fill="none">
<circle cx="40" cy="40" r="39" fill="#F1FAF5" stroke="#046B51" stroke-width="2"/>
<path d="M40.4111 30.6504C42.5891 30.6504 44.3193 31.0917 45.5537 32.0234C46.7985 32.9631 47.4189 34.2738 47.4189 35.9131C47.4189 36.9686 47.1561 37.899 46.6182 38.6885L46.6172 38.6875C46.3776 39.0517 46.0935 39.3765 45.7637 39.6602C45.6953 39.7189 45.6374 39.8538 45.6533 40.0293C45.6694 40.2049 45.7499 40.3182 45.8232 40.3584C46.4147 40.6825 46.9137 41.1013 47.3164 41.6143C48.0119 42.5003 48.3496 43.5935 48.3496 44.8701C48.3496 46.6151 47.7044 47.9922 46.3994 48.9521L46.3984 48.9512C45.1252 49.901 43.2855 50.3496 40.9316 50.3496H32.5C32.0306 50.3496 31.6504 49.9694 31.6504 49.5V31.5C31.6504 31.0306 32.0306 30.6504 32.5 30.6504H40.4111ZM35.5957 41.9355C35.5129 41.9356 35.4463 42.0032 35.4463 42.0859V47.0303C35.4464 47.1129 35.513 47.1796 35.5957 47.1797H40.7119C42.0692 47.1797 43.0248 46.9369 43.6328 46.5049C44.2189 46.0885 44.5264 45.4647 44.5264 44.5713C44.5263 43.6676 44.2181 43.0366 43.6318 42.6162C43.024 42.1805 42.0687 41.9355 40.7119 41.9355H35.5957ZM35.5957 33.8203C35.513 33.8204 35.4464 33.8871 35.4463 33.9697V38.6699C35.4463 38.7527 35.5129 38.8202 35.5957 38.8203H40.0547C41.2798 38.8203 42.1542 38.5898 42.7275 38.1797C43.2988 37.7662 43.5947 37.1648 43.5947 36.3203C43.5947 35.475 43.2987 34.8852 42.7314 34.4902L42.7227 34.4844L42.9316 34.2031L42.7227 34.4834C42.1502 34.0581 41.2776 33.8203 40.0547 33.8203H35.5957Z" fill="#046B51" stroke="#046B51" stroke-width="0.7"/>
<path d="M61.1514 30C60.0091 27.2485 58.3348 24.7484 56.2241 22.6425C54.1134 20.5365 51.6076 18.866 48.8499 17.7263C46.0921 16.5866 43.1363 16 40.1514 16C37.1664 16 34.2106 16.5866 31.4529 17.7263C28.6951 18.866 26.1894 20.5365 24.0787 22.6425C21.968 24.7484 20.2937 27.2485 19.1514 30" stroke="#046B51" stroke-dasharray="1 1"/>
<path d="M19 50.618C20.1423 53.173 21.8166 55.4945 23.9273 57.45C26.038 59.4055 28.5438 60.9567 31.3015 62.015C34.0593 63.0733 37.015 63.618 40 63.618C42.985 63.618 45.9407 63.0733 48.6985 62.015C51.4562 60.9567 53.962 59.4055 56.0727 57.45C58.1834 55.4945 59.8577 53.173 61 50.618" stroke="#046B51" stroke-dasharray="1 1"/>
<circle cx="40" cy="40" r="35.5" stroke="#046B51"/>
<circle cx="11" cy="40" r="1" fill="#046B51"/>
<circle cx="69" cy="40" r="1" fill="#046B51"/>
</svg>