<svg xmlns="http://www.w3.org/2000/svg" width="80" height="80" viewBox="0 0 80 80" fill="none">
<circle cx="40" cy="40" r="39" fill="#F1FAF5" stroke="#046B51" stroke-width="2"/>
<path d="M40.8291 29.6504C42.3492 29.6504 43.7543 29.9278 45.0391 30.4873C46.1779 30.9833 47.1548 31.678 47.9658 32.5713C48.2709 32.9074 48.2341 33.4081 47.9316 33.7129L46.6299 35.0225C46.2798 35.3743 45.7258 35.3425 45.3945 35.0146C44.1635 33.7962 42.6941 33.1915 40.9678 33.1914C39.7336 33.1914 38.6328 33.4831 37.6572 34.0615C36.6803 34.6407 35.9122 35.4475 35.3506 36.4893C34.7898 37.5294 34.5068 38.6971 34.5068 40C34.5068 41.3029 34.7898 42.4706 35.3506 43.5107C35.9122 44.5525 36.6803 45.3593 37.6572 45.9385C38.6328 46.5169 39.7336 46.8086 40.9678 46.8086C42.6928 46.8085 44.1612 46.1965 45.3926 44.9629C45.7234 44.6315 46.2813 44.5985 46.6328 44.9521L47.9336 46.2617C48.2346 46.5645 48.2736 47.0616 47.9736 47.3984C47.1614 48.3101 46.1819 49.015 45.0391 49.5127C43.7538 50.0724 42.3395 50.3496 40.8018 50.3496C38.8996 50.3496 37.168 49.9091 35.6162 49.0225L35.6133 49.0205C34.0638 48.1159 32.8471 46.8728 31.9678 45.2959C31.0872 43.7166 30.6504 41.9485 30.6504 40C30.6504 38.0336 31.0869 36.2643 31.9688 34.7021C32.8484 33.1254 34.0656 31.8908 35.6162 31.0049C37.1682 30.0996 38.909 29.6504 40.8291 29.6504Z" fill="#046B51" stroke="#046B51" stroke-width="0.7"/>
<path d="M61.1514 30C60.0091 27.2485 58.3348 24.7484 56.2241 22.6425C54.1134 20.5365 51.6076 18.866 48.8499 17.7263C46.0921 16.5866 43.1363 16 40.1514 16C37.1664 16 34.2106 16.5866 31.4529 17.7263C28.6951 18.866 26.1894 20.5365 24.0787 22.6425C21.968 24.7484 20.2937 27.2485 19.1514 30" stroke="#046B51" stroke-dasharray="1 1"/>
<path d="M19 50.618C20.1423 53.173 21.8166 55.4945 23.9273 57.45C26.038 59.4055 28.5438 60.9567 31.3015 62.015C34.0593 63.0733 37.015 63.618 40 63.618C42.985 63.618 45.9407 63.0733 48.6985 62.015C51.4562 60.9567 53.962 59.4055 56.0727 57.45C58.1834 55.4945 59.8577 53.173 61 50.618" stroke="#046B51" stroke-dasharray="1 1"/>
<circle cx="40" cy="40" r="35.5" stroke="#046B51"/>
<circle cx="11" cy="40" r="1" fill="#046B51"/>
<circle cx="69" cy="40" r="1" fill="#046B51"/>
</svg>