<svg width="88" height="88" viewBox="0 0 88 88" fill="none" xmlns="http://www.w3.org/2000/svg">
<g filter="url(#filter0_d_175_3)">
<circle cx="44" cy="40" r="40" fill="#F1FAF5"/>
<circle cx="44" cy="40" r="39" stroke="#046B51" stroke-width="2"/>
</g>
<path d="M65.1514 30C64.0091 27.2485 62.3348 24.7484 60.2241 22.6425C58.1134 20.5365 55.6076 18.866 52.8499 17.7263C50.0921 16.5866 47.1363 16 44.1514 16C41.1664 16 38.2106 16.5866 35.4529 17.7263C32.6951 18.866 30.1894 20.5365 28.0787 22.6425C25.968 24.7484 24.2937 27.2485 23.1514 30" stroke="#046B51" stroke-dasharray="1 1"/>
<path d="M23 50.618C24.1423 53.173 25.8166 55.4945 27.9273 57.45C30.038 59.4055 32.5438 60.9567 35.3015 62.015C38.0593 63.0733 41.015 63.618 44 63.618C46.985 63.618 49.9407 63.0733 52.6985 62.015C55.4562 60.9567 57.962 59.4055 60.0727 57.45C62.1834 55.4945 63.8577 53.173 65 50.618" stroke="#046B51" stroke-dasharray="1 1"/>
<circle cx="44" cy="40" r="35.5" stroke="#046B51"/>
<circle cx="15" cy="40" r="1" fill="#046B51"/>
<circle cx="73" cy="40" r="1" fill="#046B51"/>
<g filter="url(#filter1_d_175_3)">
<path d="M43.6307 51H35.8963V29.1818H43.6946C45.8892 29.1818 47.7784 29.6186 49.3622 30.4922C50.946 31.3587 52.1641 32.6051 53.0163 34.2315C53.8757 35.858 54.3054 37.804 54.3054 40.0696C54.3054 42.3423 53.8757 44.2955 53.0163 45.929C52.1641 47.5625 50.9389 48.8161 49.3409 49.6896C47.75 50.5632 45.8466 51 43.6307 51ZM40.5092 47.0476H43.4389C44.8026 47.0476 45.9496 46.8061 46.88 46.3232C47.8175 45.8331 48.5206 45.0767 48.9893 44.054C49.4652 43.0241 49.7031 41.696 49.7031 40.0696C49.7031 38.4574 49.4652 37.1399 48.9893 36.1172C48.5206 35.0945 47.821 34.3416 46.8906 33.8587C45.9602 33.3757 44.8132 33.1342 43.4496 33.1342H40.5092V47.0476Z" fill="#046B51"/>
</g>
<defs>
<filter id="filter0_d_175_3" x="0" y="0" width="88" height="88" filterUnits="userSpaceOnUse" color-interpolation-filters="sRGB">
<feFlood flood-opacity="0" result="BackgroundImageFix"/>
<feColorMatrix in="SourceAlpha" type="matrix" values="0 0 0 0 0 0 0 0 0 0 0 0 0 0 0 0 0 0 127 0" result="hardAlpha"/>
<feOffset dy="4"/>
<feGaussianBlur stdDeviation="2"/>
<feComposite in2="hardAlpha" operator="out"/>
<feColorMatrix type="matrix" values="0 0 0 0 0 0 0 0 0 0 0 0 0 0 0 0 0 0 0.25 0"/>
<feBlend mode="normal" in2="BackgroundImageFix" result="effect1_dropShadow_175_3"/>
<feBlend mode="normal" in="SourceGraphic" in2="effect1_dropShadow_175_3" result="shape"/>
</filter>
<filter id="filter1_d_175_3" x="31.8962" y="29.1818" width="26.4092" height="29.8182" filterUnits="userSpaceOnUse" color-interpolation-filters="sRGB">
<feFlood flood-opacity="0" result="BackgroundImageFix"/>
<feColorMatrix in="SourceAlpha" type="matrix" values="0 0 0 0 0 0 0 0 0 0 0 0 0 0 0 0 0 0 127 0" result="hardAlpha"/>
<feOffset dy="4"/>
<feGaussianBlur stdDeviation="2"/>
<feComposite in2="hardAlpha" operator="out"/>
<feColorMatrix type="matrix" values="0 0 0 0 0 0 0 0 0 0 0 0 0 0 0 0 0 0 0.25 0"/>
<feBlend mode="normal" in2="BackgroundImageFix" result="effect1_dropShadow_175_3"/>
<feBlend mode="normal" in="SourceGraphic" in2="effect1_dropShadow_175_3" result="shape"/>
</filter>
</defs>
</svg>
