<svg xmlns="http://www.w3.org/2000/svg" width="80" height="80" viewBox="0 0 80 80" fill="none">
  <circle cx="40" cy="40" r="39" fill="#F1FAF5" stroke="#046B51" stroke-width="2"/>
  <path d="M51.4385 34.4006C51.7421 34.4007 51.9883 34.6467 51.9883 34.9504V39.2453H56.3652C56.6689 39.2453 56.9149 39.4915 56.915 39.7951V41.8859C56.915 42.1897 56.669 42.4367 56.3652 42.4367H51.9883V46.7043C51.9882 47.0079 51.7421 47.2539 51.4385 47.2541H49.1826C48.879 47.2539 48.6329 47.0079 48.6328 46.7043V42.4367H44.2832C43.9794 42.4367 43.7334 42.1897 43.7334 41.8859V39.7951C43.7335 39.4915 43.9795 39.2453 44.2832 39.2453H48.6328V34.9504C48.6328 34.6467 48.879 34.4007 49.1826 34.4006H51.4385Z" fill="#046B51" stroke="#046B51" stroke-width="0.7"/>
  <path d="M34.7178 30.6504C36.2209 30.6504 37.6102 30.9227 38.8809 31.4727C40.0041 31.9589 40.9684 32.6396 41.7695 33.5146C42.0778 33.8514 42.0405 34.356 41.7354 34.6611L40.459 35.9375C40.1094 36.2871 39.5576 36.2556 39.2266 35.9307C38.0109 34.736 36.5596 34.1426 34.8545 34.1426C33.6346 34.1426 32.547 34.429 31.583 34.9971C30.6177 35.5659 29.8594 36.3582 29.3047 37.3809C28.7509 38.4019 28.4707 39.548 28.4707 40.8271C28.4707 42.1063 28.7509 43.2524 29.3047 44.2734C29.8594 45.2961 30.6177 46.0884 31.583 46.6572C32.547 47.2253 33.6346 47.5127 34.8545 47.5127C36.5582 47.5127 38.0087 46.9123 39.2246 45.7031C39.5551 45.3745 40.1098 45.3412 40.4609 45.6924L41.7383 46.9688C42.0414 47.2719 42.0804 47.772 41.7773 48.1094C40.975 49.0026 40.0083 49.6936 38.8809 50.1816C37.6097 50.7318 36.2112 51.0049 34.6904 51.0049C32.8095 51.0049 31.0972 50.5708 29.5625 49.6992L29.5596 49.6982C28.0271 48.809 26.824 47.5859 25.9541 46.0352C25.0828 44.482 24.6504 42.7433 24.6504 40.8271C24.6504 38.8935 25.0826 37.1535 25.9551 35.6172C26.8248 34.0677 28.0275 32.8542 29.5596 31.9834C31.0953 31.0923 32.8179 30.6504 34.7178 30.6504Z" fill="#046B51" stroke="#046B51" stroke-width="0.7"/>
  <path d="M61.1514 30C60.0091 27.2485 58.3348 24.7484 56.2241 22.6425C54.1134 20.5365 51.6076 18.866 48.8499 17.7263C46.0921 16.5866 43.1363 16 40.1514 16C37.1664 16 34.2106 16.5866 31.4529 17.7263C28.6951 18.866 26.1894 20.5365 24.0787 22.6425C21.968 24.7484 20.2937 27.2485 19.1514 30" stroke="#046B51" stroke-dasharray="1 1"/>
  <path d="M19 50.618C20.1423 53.173 21.8166 55.4945 23.9273 57.45C26.038 59.4055 28.5438 60.9567 31.3015 62.015C34.0593 63.0733 37.015 63.618 40 63.618C42.985 63.618 45.9407 63.0733 48.6985 62.015C51.4562 60.9567 53.962 59.4055 56.0727 57.45C58.1834 55.4945 59.8577 53.173 61 50.618" stroke="#046B51" stroke-dasharray="1 1"/>
  <circle cx="40" cy="40" r="35.5" stroke="#046B51"/>
  <circle cx="11" cy="40" r="1" fill="#046B51"/>
  <circle cx="69" cy="40" r="1" fill="#046B51"/>
</svg>