<svg xmlns="http://www.w3.org/2000/svg" width="80" height="80" viewBox="0 0 80 80" fill="none">
<circle cx="40" cy="40" r="39" fill="#F1FAF5" stroke="#046B51" stroke-width="2"/>
<path d="M51.9424 34.1543C52.246 34.1544 52.4922 34.4004 52.4922 34.7041V38.999H56.8691C57.1728 38.999 57.4188 39.2452 57.4189 39.5488V41.6396C57.4189 41.9434 57.1729 42.1904 56.8691 42.1904H52.4922V46.458C52.4921 46.7616 52.246 47.0076 51.9424 47.0078H49.6865C49.3829 47.0076 49.1368 46.7616 49.1367 46.458V42.1904H44.7871C44.4834 42.1904 44.2373 41.9434 44.2373 41.6396V39.5488C44.2374 39.2452 44.4834 38.999 44.7871 38.999H49.1367V34.7041C49.1367 34.4004 49.3829 34.1544 49.6865 34.1543H51.9424Z" fill="#046B51" stroke="#046B51" stroke-width="0.7"/>
<path d="M34.4033 30.6504C36.5799 30.6504 38.3094 31.0954 39.543 32.0352C40.7867 32.9827 41.4053 34.3039 41.4053 35.9551C41.4052 37.016 41.1439 37.9507 40.6094 38.7451C40.3664 39.1189 40.0767 39.4523 39.7402 39.7422C39.6722 39.801 39.615 39.934 39.6309 40.1074C39.6468 40.2813 39.7265 40.3933 39.7998 40.4336C40.3966 40.7615 40.8995 41.1862 41.3047 41.707C41.9992 42.6 42.3359 43.7019 42.3359 44.9883C42.3359 46.7459 41.6923 48.1336 40.3887 49.1016L40.3877 49.1006C39.1153 50.0588 37.2764 50.5117 34.9238 50.5117H26.5C26.0307 50.5117 25.6506 50.1314 25.6504 49.6621V31.5C25.6504 31.0306 26.0306 30.6504 26.5 30.6504H34.4033ZM29.5928 42.0254C29.5102 42.0256 29.4434 42.0931 29.4434 42.1758V47.1709C29.4435 47.2535 29.5102 47.3201 29.5928 47.3203H34.7051C36.0603 47.3203 37.0139 47.0758 37.6211 46.6406C38.2068 46.2206 38.5156 45.5897 38.5156 44.6865C38.5155 43.7732 38.206 43.1359 37.6201 42.7119C37.0131 42.2728 36.06 42.0254 34.7051 42.0254H29.5928ZM29.5928 33.8408C29.5102 33.8411 29.4434 33.9085 29.4434 33.9912V38.7393C29.4434 38.8219 29.5102 38.8894 29.5928 38.8896H34.0479C35.2713 38.8896 36.1443 38.6575 36.7168 38.2441C37.2879 37.8269 37.585 37.2193 37.585 36.3652C37.5849 35.5106 37.2876 34.915 36.7207 34.5166L36.7119 34.5107L36.9219 34.2305L36.7119 34.5098C36.1402 34.0811 35.2691 33.8408 34.0479 33.8408H29.5928Z" fill="#046B51" stroke="#046B51" stroke-width="0.7"/>
<path d="M61.1514 30C60.0091 27.2485 58.3348 24.7484 56.2241 22.6425C54.1134 20.5365 51.6076 18.866 48.8499 17.7263C46.0921 16.5866 43.1363 16 40.1514 16C37.1664 16 34.2106 16.5866 31.4529 17.7263C28.6951 18.866 26.1894 20.5365 24.0787 22.6425C21.968 24.7484 20.2937 27.2485 19.1514 30" stroke="#046B51" stroke-dasharray="1 1"/>
<path d="M19 50.618C20.1423 53.173 21.8166 55.4945 23.9273 57.45C26.038 59.4055 28.5438 60.9567 31.3015 62.015C34.0593 63.0733 37.015 63.618 40 63.618C42.985 63.618 45.9407 63.0733 48.6985 62.015C51.4562 60.9567 53.962 59.4055 56.0727 57.45C58.1834 55.4945 59.8577 53.173 61 50.618" stroke="#046B51" stroke-dasharray="1 1"/>
<circle cx="40" cy="40" r="35.5" stroke="#046B51"/>
<circle cx="11" cy="40" r="1" fill="#046B51"/>
<circle cx="69" cy="40" r="1" fill="#046B51"/>
</svg>