<svg xmlns="http://www.w3.org/2000/svg" width="80" height="80" viewBox="0 0 80 80" fill="none">
  <circle cx="40" cy="40" r="39" fill="#F1FAF5" stroke="#046B51" stroke-width="2"/>
  <path d="M41.2461 28.6504C41.5933 28.6504 41.9059 28.8613 42.0352 29.1836L50.0498 49.1836C50.2736 49.742 49.8623 50.3496 49.2607 50.3496H47.0059C46.654 50.3496 46.3381 50.1332 46.2119 49.8047L44.5225 45.4062C44.5002 45.3484 44.4449 45.3096 44.3828 45.3096H35.5605C35.4986 45.3097 35.4431 45.3484 35.4209 45.4062L33.7314 49.8047C33.6053 50.1331 33.2902 50.3495 32.9385 50.3496H30.7402C30.1382 50.3496 29.7266 49.7412 29.9512 49.1826L37.9922 29.1826C38.1217 28.8607 38.4343 28.6504 38.7812 28.6504H41.2461ZM40.124 33.9053C40.0748 33.7773 39.8944 33.7766 39.8447 33.9043L36.8457 41.6455C36.8076 41.7438 36.8799 41.8496 36.9854 41.8496H42.9609C43.066 41.8495 43.1381 41.7446 43.1006 41.6465L40.124 33.9053Z" fill="#046B51" stroke="#046B51" stroke-width="0.7"/>
  <path d="M61.1514 30C60.0091 27.2485 58.3348 24.7484 56.2241 22.6425C54.1134 20.5365 51.6076 18.866 48.8499 17.7263C46.0921 16.5866 43.1363 16 40.1514 16C37.1664 16 34.2106 16.5866 31.4529 17.7263C28.6951 18.866 26.1894 20.5365 24.0787 22.6425C21.968 24.7484 20.2937 27.2485 19.1514 30" stroke="#046B51" stroke-dasharray="1 1"/>
  <path d="M19 50.618C20.1423 53.173 21.8166 55.4945 23.9273 57.45C26.038 59.4055 28.5438 60.9567 31.3015 62.015C34.0593 63.0733 37.015 63.618 40 63.618C42.985 63.618 45.9407 63.0733 48.6985 62.015C51.4562 60.9567 53.962 59.4055 56.0727 57.45C58.1834 55.4945 59.8577 53.173 61 50.618" stroke="#046B51" stroke-dasharray="1 1"/>
  <circle cx="40" cy="40" r="35.5" stroke="#046B51"/>
  <circle cx="11" cy="40" r="1" fill="#046B51"/>
  <circle cx="69" cy="40" r="1" fill="#046B51"/>
</svg>