<svg xmlns="http://www.w3.org/2000/svg" width="80" height="80" viewBox="0 0 80 80" fill="none">
<circle cx="40" cy="40" r="39" fill="#F1FAF5" stroke="#046B51" stroke-width="2"/>
<path d="M61.1514 30C60.0091 27.2485 58.3348 24.7484 56.2241 22.6425C54.1134 20.5365 51.6076 18.866 48.8499 17.7263C46.0921 16.5866 43.1363 16 40.1514 16C37.1664 16 34.2106 16.5866 31.4529 17.7263C28.6951 18.866 26.1894 20.5365 24.0787 22.6425C21.968 24.7484 20.2937 27.2485 19.1514 30" stroke="#046B51" stroke-dasharray="1 1"/>
<path d="M19 50.618C20.1423 53.173 21.8166 55.4945 23.9273 57.45C26.038 59.4055 28.5438 60.9567 31.3015 62.015C34.0593 63.0733 37.015 63.618 40 63.618C42.985 63.618 45.9407 63.0733 48.6985 62.015C51.4562 60.9567 53.962 59.4055 56.0727 57.45C58.1834 55.4945 59.8577 53.173 61 50.618" stroke="#046B51" stroke-dasharray="1 1"/>
<circle cx="40" cy="40" r="35.5" stroke="#046B51"/>
<path d="M53.5977 32.5034C54.0118 32.5034 54.3477 32.8392 54.3477 33.2534V37.7397H58.9551C59.3692 37.7397 59.7049 38.0756 59.7051 38.4897V40.6987C59.705 41.1128 59.3693 41.4487 58.9551 41.4487H54.3477V45.935C54.3477 46.3492 54.0118 46.6849 53.5977 46.685H51.1768C50.7627 46.6848 50.4268 46.3491 50.4268 45.935V41.4487H45.8496C45.4354 41.4487 45.0997 41.1128 45.0996 40.6987V38.4897C45.0998 38.0756 45.4355 37.7397 45.8496 37.7397H50.4268V33.2534C50.4268 32.8392 50.7627 32.5035 51.1768 32.5034H53.5977Z" fill="#046B51" stroke="#046B51" stroke-width="0.5"/>
<path d="M34.8174 28.75C35.0376 28.75 35.2367 28.8815 35.3232 29.084L44.1182 49.6728C44.2729 50.0356 44.0067 50.4383 43.6123 50.4384H40.0312C39.8069 50.4384 39.6053 50.3019 39.5215 50.0937L37.7354 45.6572C37.7277 45.6383 37.7089 45.6259 37.6885 45.6259H28.2871C28.2667 45.6259 28.2479 45.6383 28.2402 45.6572L26.4541 50.0937C26.3703 50.3019 26.1688 50.4384 25.9443 50.4384H22.4541C22.0598 50.4384 21.7928 50.0356 21.9473 49.6728L30.7129 29.0849C30.7993 28.8821 30.9983 28.75 31.2188 28.75H34.8174ZM32.9873 33.9648C32.9817 33.9684 32.9752 33.9747 32.9697 33.9883L29.7861 41.7881C29.7729 41.8208 29.7967 41.8563 29.832 41.8564H36.1465C36.1818 41.8563 36.2055 41.8208 36.1924 41.7881L33.0625 33.9883C33.057 33.9745 33.0496 33.9684 33.0439 33.9648C33.0371 33.9605 33.0271 33.957 33.0156 33.957C33.0042 33.957 32.9941 33.9605 32.9873 33.9648Z" fill="#046B51" stroke="#046B51" stroke-width="0.5"/>
<circle cx="11" cy="40" r="1" fill="#046B51"/>
<circle cx="69" cy="40" r="1" fill="#046B51"/>
</svg>