<svg width="375" height="812" viewBox="0 0 375 812" fill="none" xmlns="http://www.w3.org/2000/svg">
<g clip-path="url(#clip0_531_2462)">
<rect width="375" height="812" fill="#04614A"/>
<g style="mix-blend-mode:overlay">
<path d="M247 858H150.74C150.475 837.963 137.56 726.114 97.7583 632.654C90.7383 638.025 84.4799 642.507 79.4466 645.967C44.777 669.794 -16.2508 698.036 -83.5702 705.781C-166.387 715.305 -233.872 691.478 -278.74 636.905C-301.952 608.695 -313.575 570.435 -309.833 534.58C-306.125 498.922 -287.979 467.055 -257.283 442.371C-212.613 406.483 -152.049 387.996 -86.7491 390.368C-23.7345 392.642 36.6311 413.931 83.2215 450.248C93.5529 458.322 103.487 467.384 112.957 477.501C124.117 458.552 130.872 438.911 130.342 419.896C129.315 383.283 115.143 327.754 41.6644 307.816C-24.9927 289.757 -76.4839 289.164 -201.387 298.193C-275.793 303.565 -339.006 313.649 -339.635 313.748L-355 219.167C-327.35 214.718 -36.6155 176.886 74.9763 217.915C168.72 252.386 223.953 325.019 226.503 417.161C227.86 465.736 209.185 514.444 171.005 561.998C189.416 597.919 205.145 639.772 218.125 687.359C240.146 768.296 247 840.732 247 857.934V858ZM-98.0076 485.938C-137.015 485.938 -171.85 496.813 -196.818 516.85C-207.414 525.385 -213.076 534.382 -214.103 544.367C-215.361 556.462 -209.864 569.347 -204.235 576.202C-180.824 604.675 -143.936 616.242 -94.63 610.574C-48.0396 605.235 -1.11807 584.902 24.7103 567.106C32.4919 561.734 40.4723 555.77 48.3864 549.31C40.7372 540.413 32.5251 532.405 23.7831 525.583C-6.44931 501.987 -48.0396 487.586 -90.2922 486.037C-92.875 485.938 -95.4579 485.905 -98.0076 485.905V485.938Z" fill="url(#paint0_linear_531_2462)" fill-opacity="0.1"/>
</g>
<g style="mix-blend-mode:overlay">
<path d="M290.5 166C254.886 166 226 196.005 226 233C226 269.995 254.886 300 290.5 300C326.115 300 355 269.995 355 233C355 196.005 326.115 166 290.5 166Z" fill="url(#paint1_linear_531_2462)" fill-opacity="0.1"/>
</g>
</g>
<defs>
<linearGradient id="paint0_linear_531_2462" x1="-322.748" y1="187.497" x2="292.113" y2="813.722" gradientUnits="userSpaceOnUse">
<stop stop-color="white"/>
<stop offset="0.12" stop-color="white"/>
<stop offset="1" stop-color="#EDF7F5"/>
</linearGradient>
<linearGradient id="paint1_linear_531_2462" x1="225.967" y1="233" x2="355" y2="233" gradientUnits="userSpaceOnUse">
<stop stop-color="white"/>
<stop offset="1" stop-color="#EBFAF6"/>
</linearGradient>
<clipPath id="clip0_531_2462">
<rect width="375" height="812" fill="white"/>
</clipPath>
</defs>
</svg>
