<svg width="166" height="41" viewBox="0 0 166 41" fill="none" xmlns="http://www.w3.org/2000/svg">
<path d="M25.6237 15.844C25.6237 6.39616 19.3755 0.758057 8.90517 0.758057H0V39.8808H7.48514V30.9363H9.66884C10.7859 30.9363 11.9093 30.8535 13.1653 30.6751L17.5011 39.8362H26.4252L19.912 28.0249C23.5473 25.4128 25.6174 21.0107 25.6174 15.8504L25.6237 15.844ZM18.2711 15.844C18.2711 20.673 15.1281 23.559 9.85817 23.559H7.49145V8.17997H9.85817C15.2038 8.17997 18.2711 10.9767 18.2711 15.844Z" fill="white"/>
<path d="M48.3949 0C37.325 0 28.3125 9.09106 28.3125 20.2717C28.3125 31.4524 37.3187 40.4989 48.3949 40.4989C57.2559 40.4989 64.9304 34.8416 67.4927 26.4259L67.7452 25.604H59.6605L59.4964 25.9863C57.6346 30.3375 53.1599 33.2617 48.3507 33.2617C41.9196 33.2617 36.637 28.7066 35.785 22.5652H68.2312L68.288 21.9918C68.8433 16.462 67.0131 10.8876 63.2579 6.69566C59.4522 2.44637 54.0308 0.00637697 48.3886 0.00637697L48.3949 0ZM36.4603 15.7803C38.0949 10.6583 42.8726 7.14798 48.3507 7.14798C53.8289 7.14798 58.7075 10.7347 60.2537 15.7803H36.4666H36.4603Z" fill="white"/>
<path d="M97.4775 0.751953H88.5786V39.8747H96.0638V30.9302H98.1591C109.986 30.9302 114.196 23.1388 114.196 15.8443C114.196 6.39644 107.948 0.75833 97.4775 0.75833V0.751953ZM98.4305 23.5529H96.0638V8.17387H98.4305C103.776 8.17387 106.843 10.9706 106.843 15.8379C106.843 20.7051 103.7 23.5529 98.4305 23.5529Z" fill="white"/>
<path d="M141.183 0.751953V8.04009H149.368V39.8747H156.853V8.04009H165.033V0.751953H141.183Z" fill="white"/>
<path d="M131.545 27.9485C131.646 27.7765 131.741 27.6045 131.836 27.4325C135.786 20.3737 138.273 10.7475 134.928 5.14122C133.331 2.45913 130.586 1.03208 127.21 1.13401C121.018 1.30602 118.885 6.68293 118.954 11.6585C119.024 16.5321 120.917 22.6289 123.966 27.9294C121.283 31.4397 118.285 33.4974 115.704 33.4974V39.8682C119.876 39.8682 124.073 37.5428 127.746 33.3254C131.394 37.5747 135.496 39.8682 139.58 39.8682V33.4974C137.118 33.4974 134.202 31.4588 131.539 27.9421L131.545 27.9485ZM127.771 21.4567C126.244 18.0038 125.316 14.4361 125.272 11.5757C125.215 7.56846 126.742 7.52387 127.393 7.50476C127.449 7.50476 127.5 7.50476 127.55 7.50476C128.8 7.50476 129.242 7.95071 129.526 8.43489C130.744 10.4735 130.308 15.7358 127.765 21.4631L127.771 21.4567Z" fill="white"/>
<circle cx="79" cy="7.5" r="5" fill="white"/>
<circle cx="79" cy="32.5" r="5" fill="white"/>
</svg>
