<svg width="195" height="195" viewBox="0 0 195 195" fill="none" xmlns="http://www.w3.org/2000/svg">
<path d="M158 181H134.335C134.27 176.044 131.095 148.379 121.309 125.262C119.583 126.59 118.045 127.699 116.807 128.555C108.284 134.448 93.2805 141.434 76.7302 143.349C56.3701 145.705 39.7791 139.812 28.7483 126.313C23.0416 119.336 20.1842 109.872 21.1041 101.004C22.0158 92.1841 26.477 84.3018 34.0235 78.1966C45.0055 69.3199 59.895 64.747 75.9487 65.3339C91.4407 65.8963 106.281 71.1621 117.736 80.1447C120.275 82.1418 122.718 84.3833 125.046 86.8858C127.789 82.1988 129.45 77.3407 129.32 72.6374C129.068 63.5814 125.583 49.8465 107.519 44.915C91.1314 40.4482 78.4724 40.3015 47.7652 42.5349C29.4728 43.8635 13.932 46.3578 13.7773 46.3823L10 22.9882C16.7976 21.8878 88.2739 12.5302 115.708 22.6785C138.755 31.2047 152.334 49.17 152.961 71.9609C153.295 83.9758 148.703 96.0233 139.317 107.786C143.843 116.67 147.71 127.022 150.901 138.793C156.315 158.812 158 176.729 158 180.984V181ZM73.1809 88.9725C63.591 88.9725 55.0268 91.6624 48.8887 96.6183C46.2836 98.7295 44.8915 100.955 44.6392 103.425C44.3298 106.416 45.6812 109.603 47.0651 111.299C52.8207 118.341 61.8895 121.202 74.0112 119.8C85.4653 118.48 97.0009 113.451 103.351 109.049C105.264 107.72 107.226 106.245 109.171 104.647C107.291 102.447 105.272 100.466 103.123 98.7785C95.6902 92.9422 85.4653 89.3801 75.0777 88.997C74.4427 88.9725 73.8077 88.9644 73.1809 88.9644V88.9725Z" fill="white"/>
<path d="M170 12C161.165 12 154 19.1654 154 28C154 36.8346 161.165 44 170 44C178.835 44 186 36.8346 186 28C186 19.1654 178.835 12 170 12Z" fill="white"/>
</svg>
