<svg width="96" height="24" viewBox="0 0 96 24" fill="none" xmlns="http://www.w3.org/2000/svg">
<path d="M14.9054 9.13058C14.9054 3.68608 11.2708 0.437012 5.18016 0.437012H0V22.9823H4.35413V17.8278H5.62438C6.2742 17.8278 6.92769 17.7801 7.65827 17.6773L10.1804 22.9566H15.3716L11.5829 16.15C13.6975 14.6448 14.9017 12.108 14.9017 9.13425L14.9054 9.13058ZM10.6283 9.13058C10.6283 11.9134 8.80003 13.5765 5.73452 13.5765H4.3578V4.71404H5.73452C8.84409 4.71404 10.6283 6.32573 10.6283 9.13058Z" fill="#191F28"/>
<path d="M28.1517 0C21.7123 0 16.4697 5.2389 16.4697 11.682C16.4697 18.1251 21.7086 23.3383 28.1517 23.3383C33.3062 23.3383 37.7704 20.0782 39.261 15.2284L39.4078 14.7548H34.7049L34.6095 14.9751C33.5264 17.4826 30.9235 19.1677 28.126 19.1677C24.385 19.1677 21.3121 16.5427 20.8165 13.0036H39.6905L39.7235 12.6732C40.0466 9.48656 38.9819 6.2742 36.7975 3.85851C34.5838 1.40977 31.4301 0.00367485 28.148 0.00367485L28.1517 0ZM21.2093 9.09373C22.1602 6.14203 24.9393 4.11916 28.126 4.11916C31.3127 4.11916 34.1506 6.18608 35.05 9.09373H21.213H21.2093Z" fill="#191F28"/>
<path d="M56.7029 0.433105H51.5264V22.9784H55.8805V17.8239H57.0994C63.9793 17.8239 66.4281 13.3339 66.4281 9.13034C66.4281 3.68585 62.7935 0.43678 56.7029 0.43678V0.433105ZM57.2572 13.5726H55.8805V4.71013H57.2572C60.3668 4.71013 62.151 6.32182 62.151 9.12667C62.151 11.9315 60.3227 13.5726 57.2572 13.5726Z" fill="#191F28"/>
<path d="M82.126 0.433105V4.63304H86.8876V22.9784H91.2417V4.63304H95.9997V0.433105H82.126Z" fill="#191F28"/>
<path d="M76.5205 16.1057C76.5793 16.0066 76.6344 15.9075 76.6894 15.8083C78.9876 11.7406 80.4341 6.19328 78.4883 2.96257C77.5595 1.41696 75.9625 0.594593 73.9984 0.653334C70.3969 0.752458 69.156 3.85101 69.1964 6.71827C69.2367 9.52679 70.3381 13.0402 72.1114 16.0947C70.5511 18.1176 68.8072 19.3034 67.3057 19.3034V22.9746C69.7324 22.9746 72.1738 21.6346 74.3104 19.2043C76.4324 21.653 78.8188 22.9746 81.1941 22.9746V19.3034C79.7623 19.3034 78.0662 18.1286 76.5169 16.102L76.5205 16.1057ZM74.3251 12.3647C73.4367 10.3749 72.897 8.31894 72.8713 6.67054C72.8383 4.36131 73.7267 4.33562 74.1049 4.3246C74.1379 4.3246 74.1673 4.3246 74.1966 4.3246C74.9235 4.3246 75.1805 4.58159 75.3457 4.86061C76.0543 6.03541 75.801 9.06789 74.3215 12.3684L74.3251 12.3647Z" fill="#191F28"/>
<circle cx="45.743" cy="5.6014" r="2.33383" fill="#191F28"/>
<circle cx="45.743" cy="17.2703" r="2.33383" fill="#191F28"/>
</svg>
