<svg width="163" height="40" viewBox="0 0 163 40" fill="none" xmlns="http://www.w3.org/2000/svg">
<path d="M25.4771 15.6489C25.4771 6.31744 19.3245 0.748779 9.01415 0.748779H0.245117V39.3896H7.61583V30.5553H9.76614C10.8662 30.5553 11.9724 30.4735 13.2091 30.2973L17.4787 39.3456H26.2664L19.8527 27.6797C23.4324 25.0999 25.4709 20.7519 25.4709 15.6552L25.4771 15.6489ZM18.2369 15.6489C18.2369 20.4184 15.1419 23.2688 9.95259 23.2688H7.62205V8.07928H9.95259C15.2165 8.07928 18.2369 10.8416 18.2369 15.6489Z" fill="#04614A"/>
<path d="M47.8999 0C36.9992 0 28.1245 8.97908 28.1245 20.022C28.1245 31.065 36.993 40 47.8999 40C56.6254 40 64.1826 34.4125 66.7058 26.1004L66.9544 25.2887H58.9933L58.8317 25.6662C56.9983 29.9638 52.5921 32.852 47.8564 32.852C41.5236 32.852 36.3218 28.353 35.4828 22.2872H67.4329L67.4889 21.7209C68.0358 16.2592 66.2335 10.7535 62.5357 6.61319C58.7882 2.41624 53.4497 0.00629842 47.8937 0.00629842L47.8999 0ZM36.1478 15.586C37.7574 10.527 42.462 7.05993 47.8564 7.05993C53.2508 7.05993 58.0548 10.6025 59.5775 15.586H36.154H36.1478Z" fill="#04614A"/>
<path d="M96.2321 0.742676H87.4692V39.3835H94.84V30.5492H96.9033C108.55 30.5492 112.695 22.8537 112.695 15.6491C112.695 6.31763 106.542 0.748974 96.2321 0.748974V0.742676ZM97.1705 23.2627H94.84V8.07317H97.1705C102.434 8.07317 105.455 10.8355 105.455 15.6428C105.455 20.4501 102.36 23.2627 97.1705 23.2627Z" fill="#04614A"/>
<path d="M139.27 0.742676V7.94104H147.33V39.3835H154.701V7.94104H162.755V0.742676H139.27Z" fill="#04614A"/>
<path d="M129.78 27.6042C129.879 27.4343 129.972 27.2644 130.066 27.0945C133.956 20.1227 136.405 10.6151 133.111 5.07788C131.539 2.42883 128.835 1.01936 125.51 1.12003C119.413 1.28993 117.313 6.6006 117.381 11.5149C117.45 16.3285 119.314 22.3502 122.316 27.5853C119.675 31.0524 116.723 33.0848 114.181 33.0848V39.3771C118.289 39.3771 122.421 37.0804 126.038 32.9149C129.631 37.1118 133.67 39.3771 137.691 39.3771V33.0848C135.267 33.0848 132.396 31.0713 129.774 27.5979L129.78 27.6042ZM126.063 21.1924C124.559 17.782 123.646 14.2583 123.602 11.4331C123.546 7.47522 125.05 7.43119 125.69 7.41231C125.746 7.41231 125.796 7.41231 125.846 7.41231C127.076 7.41231 127.511 7.85276 127.791 8.33098C128.99 10.3445 128.562 15.5419 126.057 21.1987L126.063 21.1924Z" fill="#04614A"/>
</svg>
