<svg width="163" height="40" viewBox="0 0 163 40" fill="none" xmlns="http://www.w3.org/2000/svg">
<path d="M25.232 15.6489C25.232 6.31744 19.0793 0.748779 8.76904 0.748779H0V39.3896H7.37071V30.5553H9.52102C10.621 30.5553 11.7273 30.4735 12.964 30.2973L17.2336 39.3456H26.0212L19.6076 27.6797C23.1873 25.0999 25.2257 20.7519 25.2257 15.6552L25.232 15.6489ZM17.9918 15.6489C17.9918 20.4184 14.8968 23.2688 9.70747 23.2688H7.37693V8.07928H9.70747C14.9714 8.07928 17.9918 10.8416 17.9918 15.6489Z" fill="#04614A"/>
<path d="M47.6548 0C36.7541 0 27.8794 8.97908 27.8794 20.022C27.8794 31.065 36.7479 40 47.6548 40C56.3803 40 63.9375 34.4125 66.4607 26.1004L66.7093 25.2887H58.7481L58.5866 25.6662C56.7532 29.9638 52.3469 32.852 47.6113 32.852C41.2784 32.852 36.0767 28.353 35.2377 22.2872H67.1878L67.2437 21.7209C67.7906 16.2592 65.9884 10.7535 62.2906 6.61319C58.5431 2.41624 53.2046 0.00629842 47.6486 0.00629842L47.6548 0ZM35.9027 15.586C37.5123 10.527 42.2169 7.05993 47.6113 7.05993C53.0057 7.05993 57.8097 10.6025 59.3323 15.586H35.9089H35.9027Z" fill="#04614A"/>
<path d="M95.9869 0.742676H87.2241V39.3835H94.5948V30.5492H96.6581C108.305 30.5492 112.45 22.8537 112.45 15.6491C112.45 6.31763 106.297 0.748974 95.9869 0.748974V0.742676ZM96.9254 23.2627H94.5948V8.07317H96.9254C102.189 8.07317 105.21 10.8355 105.21 15.6428C105.21 20.4501 102.115 23.2627 96.9254 23.2627Z" fill="#04614A"/>
<path d="M139.024 0.742676V7.94104H147.085V39.3835H154.456V7.94104H162.51V0.742676H139.024Z" fill="#04614A"/>
<path d="M129.535 27.6042C129.634 27.4343 129.727 27.2644 129.82 27.0945C133.711 20.1227 136.16 10.6151 132.866 5.07788C131.293 2.42883 128.59 1.01936 125.265 1.12003C119.168 1.28993 117.068 6.6006 117.136 11.5149C117.205 16.3285 119.069 22.3502 122.071 27.5853C119.429 31.0524 116.477 33.0848 113.936 33.0848V39.3771C118.044 39.3771 122.176 37.0804 125.793 32.9149C129.385 37.1118 133.425 39.3771 137.446 39.3771V33.0848C135.022 33.0848 132.151 31.0713 129.528 27.5979L129.535 27.6042ZM125.818 21.1924C124.314 17.782 123.401 14.2583 123.357 11.4331C123.301 7.47522 124.805 7.43119 125.445 7.41231C125.501 7.41231 125.551 7.41231 125.601 7.41231C126.831 7.41231 127.266 7.85276 127.546 8.33098C128.745 10.3445 128.317 15.5419 125.812 21.1987L125.818 21.1924Z" fill="#04614A"/>
<circle cx="77" cy="7.0249" r="5" fill="#04614A"/>
<circle cx="77" cy="32.0249" r="5" fill="#04614A"/>
</svg>
