<svg width="195" height="195" viewBox="0 0 195 195" fill="none" xmlns="http://www.w3.org/2000/svg">
<path d="M160 185H136.335C136.27 180.074 133.095 152.579 123.309 129.604C121.583 130.924 120.045 132.026 118.807 132.877C110.284 138.734 95.2805 145.677 78.7302 147.58C58.3701 149.922 41.7791 144.064 30.7483 130.649C25.0416 123.714 22.1842 114.309 23.1041 105.495C24.0158 96.729 28.477 88.8951 36.0235 82.8273C47.0055 74.005 61.895 69.4602 77.9487 70.0435C93.4407 70.6025 108.281 75.8359 119.736 84.7635C122.275 86.7483 124.718 88.9761 127.046 91.4632C129.789 86.805 131.45 81.9766 131.32 77.3022C131.068 68.3018 127.583 54.6512 109.519 49.7499C93.1314 45.3105 80.4724 45.1646 49.7652 47.3844C31.4728 48.7049 15.932 51.1838 15.7773 51.2081L12 27.9576C18.7976 26.8639 90.2739 17.5637 117.708 27.6498C140.755 36.1237 154.334 53.9788 154.961 76.6298C155.295 88.571 150.703 100.545 141.317 112.235C145.843 121.065 149.71 131.354 152.901 143.052C158.315 162.948 160 180.755 160 184.984V185ZM75.1809 93.5371C65.591 93.5371 57.0268 96.2105 50.8887 101.136C48.2836 103.234 46.8915 105.446 46.6392 107.901C46.3298 110.874 47.6812 114.041 49.0651 115.726C54.8207 122.726 63.8895 125.569 76.0112 124.176C87.4653 122.864 99.0009 117.865 105.351 113.49C107.264 112.17 109.226 110.704 111.171 109.116C109.291 106.928 107.272 104.96 105.123 103.283C97.6902 97.4824 87.4653 93.9422 77.0777 93.5614C76.4427 93.5371 75.8077 93.529 75.1809 93.529V93.5371Z" fill="url(#paint0_linear_213_26)"/>
<path d="M167.5 11C158.389 11 151 18.3893 151 27.5C151 36.6107 158.389 44 167.5 44C176.611 44 184 36.6107 184 27.5C184 18.3893 176.611 11 167.5 11Z" fill="url(#paint1_linear_213_26)"/>
<defs>
<linearGradient id="paint0_linear_213_26" x1="19.9291" y1="20.1723" x2="171.078" y2="174.128" gradientUnits="userSpaceOnUse">
<stop stop-color="#6EBD6A"/>
<stop offset="0.12" stop-color="#6ABA69"/>
<stop offset="1" stop-color="#04614A"/>
</linearGradient>
<linearGradient id="paint1_linear_213_26" x1="150.992" y1="27.5" x2="184" y2="27.5" gradientUnits="userSpaceOnUse">
<stop stop-color="#6EBD6A"/>
<stop offset="1" stop-color="#04614A"/>
</linearGradient>
</defs>
</svg>
